#N canvas 298 148 510 496 10;
#X obj 5 193 dumpOSC 9543;
#X obj 257 108 hsl 128 15 0 127 0 0 empty empty empty -2 -8 0 10 -262144
-1 -1 0 1;
#X msg 244 62 disconnect;
#X msg 226 36 connect localhost 9543;
#X obj 226 187 sendOSC;
#X msg 255 167 send /test/ 0;
#X obj 261 148 bng 15 250 50 0 empty empty empty 17 7 0 10 -262144
-1 -1;
#X floatatom 5 306 5 0 0 0 - - -;
#X obj 54 307 hsl 128 15 0 127 0 0 empty empty empty -2 -8 0 10 -262144
-1 -1 800 1;
#X obj 5 225 route /test/;
#X msg 255 126 set send /test/ \$1;
#X connect 0 0 9 0;
#X connect 1 0 10 0;
#X connect 2 0 4 0;
#X connect 3 0 4 0;
#X connect 5 0 4 0;
#X connect 6 0 5 0;
#X connect 9 0 7 0;
#X connect 9 0 8 0;
#X connect 10 0 6 0;
#X connect 10 0 5 0;
