#N canvas 322 96 660 441 12;
#X obj 31 147 random 100;
#X floatatom 31 186 3 0 100 0 - - -;
#X text 76 184 <-- change probablilty;
#X text 80 117 <-- click to test;
#X obj 508 11 cnv 15 1 400 empty empty empty 20 12 0 14 -233017 -66577
0;
#X obj 509 182 cnv 15 350 1 empty empty empty 20 12 0 14 -233017 -66577
0;
#X obj 31 116 bng 25 250 50 0 empty empty empty 17 7 0 10 -257985 -1
-1;
#X text 26 83 generate random numbers;
#X obj 13 13 comment 400 24 Helvetica Mouse 0 0 0 0 Random Numbers
;
#X connect 0 0 1 0;
#X connect 6 0 0 0;
