#N canvas 46 23 620 460 10;
#X obj 229 280 pack float symbol;
#X symbolatom 250 332 30 0 0 1 last_client - -;
#X floatatom 178 246 5 0 0 1 connections - -;
#X obj 90 161 list prepend broadcast;
#X obj 90 181 list trim;
#X obj 160 333 list prepend;
#X msg 229 301 symbol client\$1_\$2;
#X obj 160 221 maxlib/netserver 47292;
#X obj 568 89 comment 250 12 Helvetica ? 0 0 0 0 Overview;
#X obj 554 73 bng 8 250 50 0 empty empty empty 17 7 0 10 -262144 -1
-1;
#X obj 553 265 bng 8 250 50 0 empty empty empty 17 7 0 10 -262144 -1
-1;
#X obj 552 487 bng 8 250 50 0 empty empty empty 17 7 0 10 -262144 -1
-1;
#X obj 848 273 bng 8 250 50 0 empty empty empty 17 7 0 10 -262144 -1
-1;
#X obj 571 289 comment 250 12 Helvetica ? 0 0 0 0 Links;
#X obj 89 88 comment 171 24 Helvetica Mouse 0 0 0 0 Chat Server;
#X obj 406 466 gemwin_control;
#X connect 0 0 6 0;
#X connect 3 0 4 0;
#X connect 4 0 7 0;
#X connect 5 0 3 0;
#X connect 6 0 5 1;
#X connect 6 0 1 0;
#X connect 7 0 5 0;
#X connect 7 1 2 0;
#X connect 7 2 0 0;
#X connect 7 3 0 1;
#X connect 9 0 10 0;
#X connect 10 0 12 0;
#X connect 10 0 11 0;
