#N canvas 605 42 638 458 10;
#X msg 168 311 disconnect;
#X obj 86 375 print;
#X text 251 310 <-- disconnect when you are done to free the port;
#N canvas 238 612 454 304 (subpatch) 0;
#X obj 101 10 inlet;
#X obj 100 100 tgl 25 0 empty \$0-tgl connected 0 -6 0 8 -4033 -262144
-1 0 1;
#X obj 121 35 select 1;
#X obj 199 245 s \$0-tgl;
#X msg 224 197 label \$1;
#X obj 224 173 symbol;
#X msg 220 133 connected;
#X msg 298 132 -;
#X msg 112 197 color \$1 \$2 \$3;
#X msg 158 165 1 1 0;
#X msg 71 165 -65281 0 -1;
#X obj 171 55 bang;
#X connect 0 0 1 0;
#X connect 0 0 2 0;
#X connect 2 0 10 0;
#X connect 2 0 6 0;
#X connect 2 1 11 0;
#X connect 4 0 3 0;
#X connect 5 0 4 0;
#X connect 6 0 5 0;
#X connect 7 0 5 0;
#X connect 8 0 3 0;
#X connect 9 0 8 0;
#X connect 10 0 8 0;
#X connect 11 0 9 0;
#X connect 11 0 7 0;
#X coords 0 -1 1 1 25 25 1 100 100;
#X restore 250 359 pd;
#X text 59 174 type your message in the box below and hit return to
send;
#X msg 146 282 connect localhost 47292;
#X text 295 282 <-- first connect to the chat-server.pd;
#X obj 146 410 pddp/print;
#X symbolatom 58 210 50 0 0 0 - - -;
#X obj 58 249 list prepend send;
#X obj 58 271 list trim;
#X text 61 411 last message:;
#X obj 146 339 maxlib/netclient;
#X obj 543 79 comment 250 12 Helvetica ? 0 0 0 0 Overview;
#X obj 529 63 bng 8 250 50 0 empty empty empty 17 7 0 10 -262144 -1
-1;
#X obj 528 255 bng 8 250 50 0 empty empty empty 17 7 0 10 -262144 -1
-1;
#X obj 527 477 bng 8 250 50 0 empty empty empty 17 7 0 10 -262144 -1
-1;
#X obj 823 263 bng 8 250 50 0 empty empty empty 17 7 0 10 -262144 -1
-1;
#X obj 546 279 comment 250 12 Helvetica ? 0 0 0 0 Links;
#X obj 79 77 comment 171 24 Helvetica Mouse 0 0 0 0 Chat Client;
#X obj 381 456 gemwin_control;
#X connect 0 0 12 0;
#X connect 5 0 12 0;
#X connect 8 0 9 0;
#X connect 9 0 10 0;
#X connect 10 0 12 0;
#X connect 12 0 1 0;
#X connect 12 0 7 0;
#X connect 12 1 3 0;
#X connect 14 0 15 0;
#X connect 15 0 17 0;
#X connect 15 0 16 0;
