#N canvas 171 66 950 490 10;
#X msg 168 278 \; pd dsp 1;
#X text 287 196 <-- settings for mp3 stream;
#X text 310 226 bitrate: bitrate of stream \, def. 224kbit/s;
#X text 347 250 1 = joint stereo (default);
#X text 307 288 quality: 1 = high \, 9 = low;
#X text 308 208 (samplerate \, bitrate \, mode \, quality);
#X text 311 238 mode: 0 = stereo;
#X text 347 262 2 = dual channel;
#X text 347 275 3 = mono;
#X msg 166 176 print;
#X msg 234 278 \; pd dsp 0;
#X msg 167 199 mpeg 44100 128 1 4;
#X msg 167 151 append;
#X msg 166 125 stop;
#X msg 166 102 start;
#X text 212 150 Set recording mode to append ( which is the default
);
#X text 204 101 Start recording;
#X text 213 175 Print settings;
#X floatatom 116 258 10 0 0 0 - - -;
#X text 10 254 Bytes written;
#X msg 166 78 open /tmp/track1.mp3;
#X obj 116 234 mp3write~;
#X text 296 77 create a file before any operations;
#X text 204 124 Stop recording;
#X obj 33 49 adc~;
#X obj 56 101 spigot~;
#X obj 94 71 tgl 25 0 empty empty empty 17 7 0 10 -257985 -1 -1 0 1
;
#X obj 561 15 cnv 15 1 400 empty empty empty 20 12 0 14 -233017 -66577
0;
#X obj 562 184 cnv 15 350 1 empty empty empty 20 12 0 14 -233017 -66577
0;
#X obj 8 11 comment 400 24 Helvetica Mouse 0 0 0 0 Record .mp3;
#X connect 9 0 21 0;
#X connect 11 0 21 0;
#X connect 12 0 21 0;
#X connect 13 0 21 0;
#X connect 14 0 21 0;
#X connect 20 0 21 0;
#X connect 21 0 18 0;
#X connect 24 0 25 0;
#X connect 24 1 25 0;
#X connect 25 0 21 0;
#X connect 25 1 21 1;
#X connect 26 0 25 1;
