#N canvas 321 41 804 607 10;
#X obj 44 193 abs~;
#X obj 102 194 sgn~;
#X obj 285 196 <~;
#X obj 319 195 ==~;
#X obj 353 196 >~;
#X obj 411 195 &&~;
#X obj 446 195 ||~;
#X floatatom 446 243 0 0 0 0 - - -;
#X floatatom 411 243 0 0 0 0 - - -;
#X floatatom 353 244 0 0 0 0 - - -;
#X floatatom 319 244 0 0 0 0 - - -;
#X floatatom 102 242 0 0 0 0 - - -;
#X floatatom 44 243 0 0 0 0 - - -;
#X obj 44 221 avg~;
#X obj 102 220 avg~;
#X floatatom 285 244 0 0 0 0 - - -;
#X obj 285 222 avg~;
#X obj 319 221 avg~;
#X obj 353 221 avg~;
#X obj 411 221 avg~;
#X obj 446 221 avg~;
#X obj 44 163 sig~;
#X floatatom 44 141 0 0 0 0 - - -;
#X obj 353 131 sig~;
#X floatatom 353 109 0 0 0 0 - - -;
#X obj 427 131 sig~;
#X floatatom 427 109 0 0 0 0 - - -;
#X floatatom 280 484 0 0 0 0 - - -;
#X floatatom 240 484 0 0 0 0 - - -;
#X floatatom 189 484 0 0 0 0 - - -;
#X floatatom 148 485 0 0 0 0 - - -;
#X floatatom 114 485 0 0 0 0 - - -;
#X obj 114 463 avg~;
#X obj 148 462 avg~;
#X obj 189 461 avg~;
#X obj 240 462 avg~;
#X obj 280 462 avg~;
#X obj 189 373 sig~;
#X floatatom 189 351 0 0 0 0 - - -;
#X floatatom 270 352 0 0 0 0 - - -;
#X obj 114 437 <~ 2;
#X obj 148 436 ==~ 2;
#X obj 189 436 >~ 2;
#X obj 240 436 &&~ 2;
#X obj 280 436 ||~ 2;
#X text 65 30 more math and binary operations for signals;
#X text 10 263 absolute;
#X text 32 278 value;
#X text 94 263 signum;
#X text 272 272 greater;
#X text 353 273 less;
#X text 319 289 equal;
#X text 416 266 logical;
#X text 409 279 AND;
#X text 454 279 OR;
#X text 412 16 part of zexy;
#X floatatom 212 242 0 0 0 0 - - -;
#X floatatom 174 243 0 0 0 0 - - -;
#X obj 174 221 avg~;
#X obj 212 220 avg~;
#X obj 174 193 absgn~;
#X text 178 267 (both);
#X text 54 58 (this help-patch might be very CPU-consumptious \, because
of the float-atoms....);
#X obj 520 9 cnv 15 1 400 empty empty empty 20 12 0 14 -233017 -66577
0;
#X obj 521 193 cnv 15 350 1 empty empty empty 20 12 0 14 -233017 -66577
0;
#X connect 0 0 13 0;
#X connect 1 0 14 0;
#X connect 2 0 16 0;
#X connect 3 0 17 0;
#X connect 4 0 18 0;
#X connect 5 0 19 0;
#X connect 6 0 20 0;
#X connect 13 0 12 0;
#X connect 14 0 11 0;
#X connect 16 0 15 0;
#X connect 17 0 10 0;
#X connect 18 0 9 0;
#X connect 19 0 8 0;
#X connect 20 0 7 0;
#X connect 21 0 0 0;
#X connect 21 0 1 0;
#X connect 21 0 60 0;
#X connect 22 0 21 0;
#X connect 23 0 2 0;
#X connect 23 0 3 0;
#X connect 23 0 4 0;
#X connect 23 0 5 0;
#X connect 23 0 6 0;
#X connect 24 0 23 0;
#X connect 25 0 6 1;
#X connect 25 0 5 1;
#X connect 25 0 4 1;
#X connect 25 0 3 1;
#X connect 25 0 2 1;
#X connect 26 0 25 0;
#X connect 32 0 31 0;
#X connect 33 0 30 0;
#X connect 34 0 29 0;
#X connect 35 0 28 0;
#X connect 36 0 27 0;
#X connect 37 0 40 0;
#X connect 37 0 41 0;
#X connect 37 0 42 0;
#X connect 37 0 43 0;
#X connect 37 0 44 0;
#X connect 38 0 37 0;
#X connect 39 0 43 1;
#X connect 39 0 42 1;
#X connect 39 0 41 1;
#X connect 39 0 40 1;
#X connect 40 0 32 0;
#X connect 41 0 33 0;
#X connect 42 0 34 0;
#X connect 43 0 35 0;
#X connect 44 0 36 0;
#X connect 58 0 57 0;
#X connect 59 0 56 0;
#X connect 60 0 58 0;
#X connect 60 1 59 0;
