#N canvas 502 282 802 458 10;
#X obj 21 25 comment 400 24 Helvetica Mouse 0 0 0 0 Frequency and Pitch
;
#X obj 492 107 comment 250 12 Helvetica ? 0 0 0 0 The [ftom] object
transposes a frequency in Hertz into a MIDI value.;
#X obj 491 246 comment 250 12 Helvetica ? 0 0 0 0 Links;
#X obj 466 27 cnv 1 1 400 empty empty empty 20 12 0 14 -233017 -66577
0;
#X obj 466 223 cnv 1 300 1 empty empty empty 20 12 0 14 -233017 -66577
0;
#X obj 177 376 output~;
#X text 60 393 Adjust the volume;
#X obj 491 305 helplink output~;
#X obj 492 146 comment 250 12 Helvetica ? 0 0 0 0 The [mtof] object
transposes a MIDI value into a frequency in Hertz.;
#X floatatom 25 85 5 0 0 0 - - -;
#X floatatom 25 144 5 0 0 0 - - -;
#X obj 119 113 mtof;
#X floatatom 119 85 5 0 0 0 - - -;
#X floatatom 119 144 5 0 0 0 - - -;
#X obj 25 113 ftom;
#X obj 491 268 helplink ftom;
#X obj 491 286 helplink mtof;
#X obj 177 317 osc~;
#N canvas 0 22 450 300 (subpatch) 0;
#X array \$0utput 4410 float 0;
#X coords 0 1 4410 -1 200 140 1;
#X restore 237 137 graph;
#X text 329 321 Click to graph;
#X obj 298 317 tgl 25 0 empty empty empty 17 7 0 10 -257985 -1 -1 0
1;
#X obj 298 352 metro 100;
#X obj 492 30 comment 250 12 Helvetica ? 0 0 0 0 The [osc~] object
\, if you give it an argument \, expects floating point messages to
set its frequency. Without arguments \, its frequency is controlled
by connecting an audio signal to its input.;
#X obj 298 378 tabwrite~ \$0utput;
#X text 23 168 MIDI value;
#X text 117 168 Frequency value;
#X text 165 85 Click and drag up or downward;
#X connect 9 0 14 0;
#X connect 10 0 12 0;
#X connect 11 0 13 0;
#X connect 12 0 11 0;
#X connect 13 0 17 0;
#X connect 13 0 9 0;
#X connect 14 0 10 0;
#X connect 17 0 5 0;
#X connect 17 0 5 1;
#X connect 17 0 23 0;
#X connect 20 0 21 0;
#X connect 21 0 23 0;
