#N canvas 414 35 622 446 10;
#X obj 12 155 output~;
#X text 7 5 make a sound!;
#X obj 12 68 osc~ 440;
#X text 70 68 this plays a note (check here for info on oscilators)
;
#X text 79 155 crank up the volume! (link here for info on volume)
;
#X obj 464 185 pddp/helplink output~;
#X text 463 12 links to help patches;
#X obj 464 62 pddp/helplink osc~;
#X obj 464 84 pddp/helplink cos~;
#X obj 465 106 pddp/helplink phasor~;
#X obj 466 130 pddp/helplink noise~;
#X connect 2 0 0 0;
