#N canvas 147 77 513 366 10;
#X obj 117 66 mapping/tolist;
#X obj 6 -21 route ports;
#X msg -33 -60 ports;
#X obj 148 15 pddp/print;
#X obj 6 -2 unpack float symbol;
#X obj -33 -40 comport;
#X symbolatom 149 42 10 0 0 0 - - -;
#X obj 117 118 popup 124 25 #ffffff popup /dev/tty.Bluetooth-PDA-Sync
;
#X obj -60 -82 t b b;
#X obj -62 -106 bng 15 250 50 0 empty empty empty 17 7 0 10 -262144
-1 -1;
#X obj 117 86 prepend options;
#X connect 0 0 10 0;
#X connect 1 0 4 0;
#X connect 2 0 5 0;
#X connect 4 1 3 0;
#X connect 4 1 6 0;
#X connect 4 1 0 0;
#X connect 5 1 1 0;
#X connect 8 0 0 1;
#X connect 8 1 2 0;
#X connect 9 0 8 0;
#X connect 10 0 7 0;
