#N canvas 427 34 802 458 10;
#X obj 21 25 comment 400 24 Helvetica Mouse 0 0 0 0 Serial Communication
with Arduino;
#X obj 492 35 comment 250 12 Helvetica ? 0 0 0 0 You can interface
an Arduino microcontroller with your patch.;
#X text 102 89 Click here to begin;
#X obj 491 256 comment 250 12 Helvetica ? 0 0 0 0 Links;
#X obj 466 27 cnv 1 1 400 empty empty empty 20 12 0 14 -233017 -66577
0;
#X obj 466 237 cnv 1 300 1 empty empty empty 20 12 0 14 -233017 -66577
0;
#X obj 65 87 bng 25 250 50 0 empty empty empty 17 7 0 10 -257985 -1
-1;
#X obj 65 129 t b b;
#X msg 92 154 ports;
#X obj 92 179 comport;
#X obj 131 204 route ports;
#X obj 131 229 unpack float symbol;
#X obj 272 246 pddp/print;
#X symbolatom 272 277 10 0 0 0 - - -;
#X obj 242 309 mapping/tolist;
#X obj 242 335 prepend options;
#X obj 242 370 popup 124 25 #ffffff popup /dev/tty.Bluetooth-PDA-Sync
;
#X connect 6 0 7 0;
#X connect 7 1 8 0;
#X connect 8 0 9 0;
#X connect 9 1 10 0;
#X connect 10 0 11 0;
#X connect 11 1 12 0;
#X connect 11 1 13 0;
#X connect 11 1 14 0;
#X connect 14 0 15 0;
#X connect 15 0 16 0;
