#N canvas 638 255 802 458 10;
#X obj 21 25 comment 400 24 Helvetica Mouse 0 0 0 0 Blob Tracker;
#X obj 492 35 comment 250 12 Helvetica ? 0 0 0 0 A "blob" is a number
of adjacent pixels with a luminance that is bigger than the value defined
by "threshold." You can set the minimum size of a blob that is needed
to be detected.;
#X obj 491 246 comment 250 12 Helvetica ? 0 0 0 0 Links;
#X obj 466 27 cnv 1 1 400 empty empty empty 20 12 0 14 -233017 -66577
0;
#X obj 466 223 cnv 1 300 1 empty empty empty 20 12 0 14 -233017 -66577
0;
#X obj 91 81 gemhead;
#X obj 91 142 pix_video;
#X obj 207 203 pix_multiblob 6;
#X floatatom 207 81 3 0 100 0 - - -;
#X floatatom 310 81 3 0 100 0 - - -;
#X obj 207 110 / 100;
#X obj 310 109 / 100;
#X msg 310 141 blobSize \$1;
#X obj 207 242 pix_texture;
#X obj 207 268 square 4;
#X floatatom 294 269 5 0 0 0 - - -;
#X floatatom 294 287 5 0 0 0 - - -;
#X floatatom 294 305 5 0 0 0 - - -;
#X floatatom 294 323 5 0 0 0 - - -;
#X floatatom 294 341 5 0 0 0 - - -;
#X floatatom 294 359 5 0 0 0 - - -;
#X floatatom 294 377 5 0 0 0 - - -;
#X floatatom 294 395 5 0 0 0 - - -;
#X text 276 267 x;
#X text 276 285 y;
#X text 258 304 size;
#X text 259 322 minX;
#X text 259 339 minY;
#X text 260 357 maxX;
#X text 260 376 maxY;
#X text 259 393 area;
#X obj 492 106 comment 250 12 Helvetica ? 0 0 0 0 Inlet 1: threshold
<float>: minimum luminance of a pixel to be considered part of a blob.
(default = 0.04);
#X obj 492 154 comment 250 12 Helvetica ? 0 0 0 0 Inlet 1: blobSize
<float>: minimum relative size of a blob. (default = 0.1);
#X text 204 57 Threshold;
#X text 308 57 Blob size;
#X obj 491 268 helplink gemhead;
#N canvas 728 235 450 300 gemwin 0;
#X obj 61 44 inlet;
#X obj 61 77 route create;
#X msg 61 112 set destroy;
#X msg 144 112 set create;
#X obj 61 178 outlet;
#X msg 178 185 create \, 1;
#X msg 252 185 destroy;
#X obj 178 228 gemwin;
#X connect 0 0 1 0;
#X connect 1 0 2 0;
#X connect 1 0 5 0;
#X connect 1 1 3 0;
#X connect 1 1 6 0;
#X connect 2 0 4 0;
#X connect 3 0 4 0;
#X connect 5 0 7 0;
#X connect 6 0 7 0;
#X restore 91 383 pd gemwin;
#N canvas 716 286 658 400 display_blob 0;
#X obj 81 74 inlet blobinformation;
#X msg 81 104 \$3 \$4 \$5 \$6 \$7 \$8 \$9 \$10;
#X obj 81 136 unpack 0 0 0 0 0 0 0 0;
#X obj 81 165 outlet weightedX;
#X obj 99 188 outlet weightedY;
#X obj 117 211 outlet weightedSize;
#X obj 136 234 outlet minX;
#X obj 154 257 outlet minY;
#X obj 173 280 outlet maxX;
#X obj 191 303 outlet maxY;
#X obj 210 326 outlet size;
#X obj 376 104 gemhead 70;
#X obj 376 130 color 1 1 1 0.5;
#X obj 376 156 alpha;
#N canvas 168 199 605 384 rectangle 0;
#X obj 312 19 inlet;
#X obj 128 69 inlet;
#X obj 312 69 unpack 0 0 0 0;
#X obj 128 224 translateXYZ;
#X obj 47 224 loadbang;
#X msg 47 247 draw line;
#X obj 128 247 color 1 0 0;
#X obj 128 321 rectangle;
#X obj 312 97 +;
#X obj 366 97 +;
#X obj 312 139 - 1;
#X obj 366 139 - 1;
#X obj 312 162 * 4;
#X obj 366 162 * 4;
#X obj 455 170 -;
#X obj 498 170 -;
#X obj 455 193 * -4;
#X obj 498 193 * -4;
#X text 269 139 0 - 2;
#X text 257 163 -1 - +1;
#X connect 0 0 2 0;
#X connect 1 0 3 0;
#X connect 2 0 8 0;
#X connect 2 0 14 0;
#X connect 2 1 8 1;
#X connect 2 1 14 1;
#X connect 2 2 9 0;
#X connect 2 2 15 0;
#X connect 2 3 9 1;
#X connect 2 3 15 1;
#X connect 3 0 6 0;
#X connect 4 0 5 0;
#X connect 5 0 7 0;
#X connect 6 0 7 0;
#X connect 8 0 10 0;
#X connect 9 0 11 0;
#X connect 10 0 12 0;
#X connect 11 0 13 0;
#X connect 12 0 3 1;
#X connect 13 0 3 2;
#X connect 14 0 16 0;
#X connect 15 0 17 0;
#X connect 16 0 7 1;
#X connect 17 0 7 2;
#X restore 376 244 pd rectangle;
#X msg 445 221 \$6 \$8 \$7 \$9;
#X text 26 21 This extracts information from the 1st detected blob.
;
#X connect 0 0 1 0;
#X connect 0 0 15 0;
#X connect 1 0 2 0;
#X connect 2 0 3 0;
#X connect 2 1 4 0;
#X connect 2 2 5 0;
#X connect 2 3 6 0;
#X connect 2 4 7 0;
#X connect 2 5 8 0;
#X connect 2 6 9 0;
#X connect 2 7 10 0;
#X connect 11 0 12 0;
#X connect 12 0 13 0;
#X connect 13 0 14 0;
#X connect 15 0 14 1;
#X restore 294 242 pd display_blob 1;
#X msg 207 140 treshold \$1;
#X msg 38 382 create;
#X obj 38 339 bng 25 250 50 0 empty empty empty 17 7 0 10 -257985 -1
-1;
#X text 33 313 Click here to create window;
#X obj 492 342 helplink gemwin;
#X obj 491 323 helplink pix_texture;
#X obj 491 305 helplink pix_multiblob;
#X obj 491 286 helplink pix_video;
#X connect 5 0 6 0;
#X connect 6 0 7 0;
#X connect 7 0 13 0;
#X connect 7 1 37 0;
#X connect 8 0 10 0;
#X connect 9 0 11 0;
#X connect 10 0 38 0;
#X connect 11 0 12 0;
#X connect 12 0 7 0;
#X connect 13 0 14 0;
#X connect 36 0 39 0;
#X connect 37 0 15 0;
#X connect 37 1 16 0;
#X connect 37 2 17 0;
#X connect 37 3 18 0;
#X connect 37 4 19 0;
#X connect 37 5 20 0;
#X connect 37 6 21 0;
#X connect 37 7 22 0;
#X connect 38 0 7 0;
#X connect 39 0 36 0;
#X connect 40 0 39 0;
