#N canvas 492 74 773 672 10;
#X obj 170 9 key;
#X floatatom 170 41 5 0 0 0 - - -;
#X obj 170 64 moocow/bytes2any;
#X obj 170 133 pddp/print;
#X msg 422 145 create;
#X msg 479 163 destroy;
#X obj 453 212 gemwin;
#X obj 316 -2 gemhead;
#X obj 318 217 text3d;
#X msg 347 128 string 97;
#X obj 392 32 bng 15 250 50 0 empty empty empty 17 7 0 10 -262144 -1
-1;
#X floatatom 361 184 5 0 0 0 - - -;
#X msg 378 7 set string \$1;
#X obj 101 283 key;
#X floatatom 101 307 5 0 0 0 - - -;
#X text 270 347 This times how long between each;
#X text 270 363 press of the 'a' key.;
#X floatatom 201 307 5 0 0 0 - - -;
#X obj 201 283 keyup;
#X floatatom 301 307 5 0 0 0 - - -;
#X obj 301 283 keyname;
#X symbolatom 365 307 10 0 0 0 - - -;
#X text 6 362 't' key as toggle:;
#X obj 54 434 select 116;
#X obj 54 403 keyup;
#N canvas 10 40 620 460 (subpatch) 0;
#X obj 101 10 inlet;
#X obj 100 100 tgl 32 0 empty \$0-tgl empty 0 -6 0 8 -166441 -166441
-262144 0 1;
#X obj 156 68 select 1;
#X msg 172 186 color \$1 \$2 \$3;
#X msg 268 146 1 1 0;
#X msg 133 144 -65281 0 -1;
#X obj 268 85 bang;
#X obj 176 241 send \$0-tgl;
#X connect 0 0 1 0;
#X connect 1 0 2 0;
#X connect 2 0 5 0;
#X connect 2 1 6 0;
#X connect 3 0 7 0;
#X connect 4 0 3 0;
#X connect 5 0 3 0;
#X connect 6 0 4 0;
#X coords 0 -1 1 1 32 32 1 100 100;
#X restore 54 458 pd;
#X obj 362 390 key;
#X floatatom 362 414 5 0 0 0 - - -;
#X obj 461 392 keyup;
#X obj 362 443 select 97;
#X obj 461 443 select 97;
#X obj 397 472 timer;
#X floatatom 397 498 5 0 0 0 - - -;
#X connect 0 0 1 0;
#X connect 1 0 2 0;
#X connect 1 0 12 0;
#X connect 2 0 3 0;
#X connect 4 0 6 0;
#X connect 5 0 6 0;
#X connect 7 0 8 0;
#X connect 9 0 8 0;
#X connect 10 0 9 0;
#X connect 11 0 8 1;
#X connect 12 0 10 0;
#X connect 12 0 9 0;
#X connect 13 0 14 0;
#X connect 18 0 17 0;
#X connect 20 0 19 0;
#X connect 20 1 21 0;
#X connect 23 0 25 0;
#X connect 24 0 23 0;
#X connect 26 0 27 0;
#X connect 27 0 29 0;
#X connect 28 0 30 0;
#X connect 29 0 31 0;
#X connect 30 0 31 1;
#X connect 31 0 32 0;
