#N canvas 303 94 772 453 10;
#N canvas 0 22 450 300 gemwin 0;
#X obj 132 136 gemwin;
#X obj 67 89 outlet;
#X obj 67 10 inlet;
#X msg 67 70 set destroy;
#X msg 132 112 create \, 1;
#X msg 198 112 destroy;
#X msg 156 71 set create;
#X obj 67 41 route create;
#X connect 2 0 7 0;
#X connect 3 0 1 0;
#X connect 4 0 0 0;
#X connect 5 0 0 0;
#X connect 6 0 1 0;
#X connect 7 0 3 0;
#X connect 7 0 4 0;
#X connect 7 1 6 0;
#X connect 7 1 5 0;
#X restore 609 389 pd gemwin;
#X msg 609 370 destroy;
#X obj 461 73 gemhead;
#X obj 461 370 pix_texture;
#X obj 473 103 bng 25 250 50 0 empty empty empty 0 -6 0 8 -262144 -1
-1;
#X obj 473 132 openpanel;
#X msg 473 152 open \$1;
#X obj 461 392 rectangle 4 3;
#X obj 461 261 pix_film;
#X msg 479 195 auto \$1;
#X obj 479 177 tgl 15 0 empty empty empty 0 -6 0 8 -262144 -1 -1 1
1;
#X obj 497 176 loadbang;
#X connect 0 0 1 0;
#X connect 1 0 0 0;
#X connect 2 0 8 0;
#X connect 3 0 7 0;
#X connect 4 0 5 0;
#X connect 5 0 6 0;
#X connect 6 0 8 0;
#X connect 8 0 3 0;
#X connect 9 0 8 0;
#X connect 10 0 9 0;
#X connect 11 0 10 0;
