#N canvas 0 22 651 393 10;
#X text 452 8 GEM object;
#X obj 8 216 cnv 15 430 125 empty empty empty 20 12 0 14 -233017 -66577
0;
#X text 39 218 Inlets:;
#X text 39 310 Outlets:;
#X obj 8 176 cnv 15 430 30 empty empty empty 20 12 0 14 -195568 -66577
0;
#X text 17 175 Arguments:;
#X obj 8 76 cnv 15 430 90 empty empty empty 20 12 0 14 -233017 -66577
0;
#X obj 449 77 cnv 15 170 250 empty empty empty 20 12 0 14 -228992 -66577
0;
#X text 453 60 Example:;
#X obj 514 254 cnv 15 100 60 empty empty empty 20 12 0 14 -195568 -66577
0;
#N canvas 0 22 450 300 gemwin 0;
#X obj 132 136 gemwin;
#X obj 67 89 outlet;
#X obj 67 10 inlet;
#X obj 67 41 route create;
#X msg 67 70 set destroy;
#X msg 142 68 set create;
#X msg 132 112 create \, 1;
#X msg 198 112 destroy;
#X connect 2 0 3 0;
#X connect 3 0 4 0;
#X connect 3 0 6 0;
#X connect 3 1 5 0;
#X connect 3 1 7 0;
#X connect 4 0 1 0;
#X connect 5 0 1 0;
#X connect 6 0 0 0;
#X connect 7 0 0 0;
#X restore 519 293 pd gemwin;
#X msg 519 274 destroy;
#X text 515 253 Create window:;
#X obj 450 136 cnv 15 160 80 empty empty empty 20 12 0 14 -24198 -66577
0;
#X obj 451 84 gemhead;
#X text 71 31 Class: pix object;
#X obj 451 233 pix_texture;
#X text 63 186 <none>;
#X text 17 323 Outlet 1: gemlist;
#X text 23 232 Inlet 1: gemlist;
#X obj 451 255 square 3;
#X floatatom 530 175 5 0 0 2 interlace - -;
#X obj 451 196 pix_scanline;
#X obj 465 140 tgl 15 0 empty empty empty 0 -6 0 8 -262144 -1 -1 0
1;
#X msg 465 159 mode \$1;
#X text 50 12 Synopsis: [pix_scanline];
#X text 29 77 Description: scan lines of an image;
#X text 16 103 [pix_scanline] manipulates each row of an image by either
removing or duplicating them. this can be used an image resolution
decimator in mode 0 or as an interlacer in mode 1;
#X text 23 245 Inlet 1: message: mode [0|1] (duplicate(=default) or
draw only);
#X text 23 278 Inlet 2: int: the number of lines to duplicate or the
to skip between drawing;
#X obj 522 -32 bng 25 250 50 0 empty empty empty 0 -6 0 8 -262144 -1
-1;
#X obj 522 -3 openpanel;
#X msg 522 17 open \$1;
#X obj 510 126 pix_film;
#X msg 528 60 auto \$1;
#X obj 528 42 tgl 15 0 empty empty empty 0 -6 0 8 -262144 -1 -1 1 1
;
#X connect 10 0 11 0;
#X connect 11 0 10 0;
#X connect 14 0 33 0;
#X connect 16 0 20 0;
#X connect 21 0 22 1;
#X connect 22 0 16 0;
#X connect 23 0 24 0;
#X connect 24 0 22 0;
#X connect 30 0 31 0;
#X connect 31 0 32 0;
#X connect 32 0 33 0;
#X connect 33 0 22 0;
#X connect 34 0 33 0;
#X connect 35 0 34 0;
