#N canvas 0 22 651 393 10;
#X text 452 8 GEM object;
#X obj 8 216 cnv 15 430 125 empty empty empty 20 12 0 14 -233017 -66577
0;
#X text 39 218 Inlets:;
#X text 39 310 Outlets:;
#X obj 8 176 cnv 15 430 30 empty empty empty 20 12 0 14 -195568 -66577
0;
#X text 17 175 Arguments:;
#X obj 8 76 cnv 15 430 90 empty empty empty 20 12 0 14 -233017 -66577
0;
#X obj 449 77 cnv 15 170 250 empty empty empty 20 12 0 14 -228992 -66577
0;
#X text 453 60 Example:;
#X obj 514 254 cnv 15 100 60 empty empty empty 20 12 0 14 -195568 -66577
0;
#N canvas 0 22 450 300 gemwin 0;
#X obj 132 136 gemwin;
#X obj 67 89 outlet;
#X obj 67 10 inlet;
#X obj 67 41 route create;
#X msg 67 70 set destroy;
#X msg 142 68 set create;
#X msg 132 112 create \, 1;
#X msg 198 112 destroy;
#X connect 2 0 3 0;
#X connect 3 0 4 0;
#X connect 3 0 6 0;
#X connect 3 1 5 0;
#X connect 3 1 7 0;
#X connect 4 0 1 0;
#X connect 5 0 1 0;
#X connect 6 0 0 0;
#X connect 7 0 0 0;
#X restore 519 293 pd gemwin;
#X msg 519 274 destroy;
#X text 515 253 Create window:;
#X obj 450 140 cnv 15 160 80 empty empty empty 20 12 0 14 -24198 -66577
0;
#X obj 451 84 gemhead;
#X text 71 31 Class: pix object;
#X obj 451 233 pix_texture;
#X text 63 186 <none>;
#X text 57 323 Outlet 1: gemlist;
#X text 33 232 Inlet 1: gemlist;
#X obj 451 255 square 3;
#X floatatom 530 175 5 0 0 2 roll - -;
#X obj 451 196 pix_roll;
#X msg 459 168 axis \$1;
#X obj 459 147 tgl 15 0 empty empty empty 0 -6 0 8 -262144 -1 -1 1
1;
#X text 50 12 Synopsis: [pix_roll];
#X text 12 90 [pix_roll] will roll/scroll an image (wrap around the
left/right vs. upper/lower edge);
#X text 33 278 Inlet 2: int: (sc)roll number of pixels;
#X text 29 77 Description: (sc)roll through an image;
#X text 33 245 Inlet 1: message: axis [0|1] scroll(0=default) or roll(1)
;
#X text 13 116 [pix_roll] gives an effect similar to vertical and horizontal
hold on a television. the offset is user defined and can be incremented
using a counter object for a looping roll effect.;
#X obj 525 -21 bng 25 250 50 0 empty empty empty 0 -6 0 8 -262144 -1
-1;
#X obj 525 8 openpanel;
#X msg 525 28 open \$1;
#X obj 513 137 pix_film;
#X msg 531 71 auto \$1;
#X obj 531 53 tgl 15 0 empty empty empty 0 -6 0 8 -262144 -1 -1 1 1
;
#X connect 10 0 11 0;
#X connect 11 0 10 0;
#X connect 14 0 34 0;
#X connect 16 0 20 0;
#X connect 21 0 22 1;
#X connect 22 0 16 0;
#X connect 23 0 22 0;
#X connect 24 0 23 0;
#X connect 31 0 32 0;
#X connect 32 0 33 0;
#X connect 33 0 34 0;
#X connect 34 0 22 0;
#X connect 35 0 34 0;
#X connect 36 0 35 0;
