#N canvas 277 22 898 633 10;
#X obj 32 149 cursor;
#X msg 41 126 bang;
#X obj 32 207 route x y;
#X floatatom 19 231 5 0 0 0 x - -;
#X floatatom 57 231 5 0 0 1 y - -;
#X obj 32 101 tgl 15 0 empty empty empty 17 7 0 10 -262144 -1 -1 1
1;
#X floatatom 121 247 5 0 0 1 mousewheel - -;
#X obj 32 173 route motion mousewheel button;
#X text 51 98 turn on to get mouse motion and buttons;
#X obj 150 199 route 1 2 3;
#X obj 150 219 tgl 15 0 empty empty empty 17 7 0 10 -262144 -1 -1 0
1;
#X obj 171 219 tgl 15 0 empty empty empty 17 7 0 10 -262144 -1 -1 0
1;
#X obj 192 219 tgl 15 0 empty empty empty 17 7 0 10 -262144 -1 -1 0
1;
#X text 213 218 <-- mouse buttons;
#X text 72 125 or bang to get the current mouse position;
#X obj 502 14 cnv 15 1 400 empty empty empty 20 12 0 14 -233017 -66577
0;
#X obj 504 185 cnv 15 350 1 empty empty empty 20 12 0 14 -233017 -66577
0;
#X obj 28 31 comment 400 24 Helvetica Mouse 0 0 0 0 Grab Cursor;
#X connect 0 0 7 0;
#X connect 1 0 0 0;
#X connect 2 0 3 0;
#X connect 2 1 4 0;
#X connect 5 0 0 0;
#X connect 7 0 2 0;
#X connect 7 1 6 0;
#X connect 7 2 9 0;
#X connect 9 0 10 0;
#X connect 9 1 11 0;
#X connect 9 2 12 0;
