#N canvas 395 22 874 528 10;
#X obj 499 39 comment 250 12 Helvetica ? 0 0 0 0 Overview;
#X obj 506 239 comment 250 12 Helvetica ? 0 0 0 0 Links;
#X obj 489 23 bng 8 250 50 0 empty empty empty 17 7 0 10 -262144 -1
-1;
#X obj 488 215 bng 8 250 50 0 empty empty empty 17 7 0 10 -262144 -1
-1;
#X obj 487 437 bng 8 250 50 0 empty empty empty 17 7 0 10 -262144 -1
-1;
#X obj 783 223 bng 8 250 50 0 empty empty empty 17 7 0 10 -262144 -1
-1;
#X obj 499 59 comment 320 12 Helvetica ? 0 0 0 0 adding a [lighting
\$1( flag to the gemwin object will light your virtual space \, the
[light] object takes color values from it's right inlet. Toggle [debug(
on and off to see the light source.;
#X obj 128 59 gemhead;
#X obj 128 440 light;
#X msg 166 410 1 1 1;
#X obj 162 311 tgl 15 0 empty empty empty 0 -6 0 8 -4034 -1 -1 0 1
;
#X msg 162 332 debug \$1;
#X obj 42 442 sphere;
#X obj 128 186 rotateXYZ 0 -120 0;
#X obj 42 58 gemhead 40;
#X msg 155 387 1 1 0;
#X obj 38 26 comment 400 24 Helvetica Mouse 0 0 0 0 Lighting;
#X obj 128 287 translateXYZ 0 0 0;
#X floatatom 176 258 5 0 0 0 - - -;
#X obj 505 265 pddplink sphere-help.pd;
#X obj 505 290 pddplink light-help.pd;
#X obj 505 314 pddplink rotateXYZ-help.pd;
#X obj 505 336 pddplink translateXYZ-help.pd;
#X obj 340 22 gemwin_control;
#X obj 166 216 hsl 180 15 -60 60 0 0 empty empty empty -2 -8 0 10 -4034
-1 -1 9000 1;
#X obj 201 112 hsl 180 15 0 360 0 0 empty empty empty -2 -8 0 10 -4034
-1 -1 3700 1;
#X floatatom 212 154 5 0 0 0 - - -;
#X connect 2 0 3 0;
#X connect 3 0 5 0;
#X connect 3 0 4 0;
#X connect 7 0 13 0;
#X connect 9 0 8 1;
#X connect 10 0 11 0;
#X connect 11 0 8 0;
#X connect 13 0 17 0;
#X connect 14 0 12 0;
#X connect 15 0 8 1;
#X connect 17 0 8 0;
#X connect 24 0 17 1;
#X connect 24 0 18 0;
#X connect 25 0 13 2;
#X connect 25 0 26 0;
