#N canvas 389 22 826 553 10;
#X obj 52 282 part_head;
#X obj 52 418 part_draw;
#X text 147 350 set the number per frame;
#X text 161 382 set the age to kill at;
#X text 266 197 the velocity domain;
#X text 265 212 a sphere at 0 \, 0.2 \, 0;
#X text 266 231 radius = 0.3;
#X msg 241 257 0 0.2 0 0.3;
#X msg 328 256 0.2 0 0 0.3;
#X obj 52 318 part_velocity sphere 0 0.2 0 0.3;
#X obj 52 351 part_source 20;
#X obj 52 382 part_killold 50;
#X obj 513 49 comment 250 12 Helvetica ? 0 0 0 0 Overview;
#X obj 499 33 bng 8 250 50 0 empty empty empty 17 7 0 10 -262144 -1
-1;
#X obj 498 225 bng 8 250 50 0 empty empty empty 17 7 0 10 -262144 -1
-1;
#X obj 497 447 bng 8 250 50 0 empty empty empty 17 7 0 10 -262144 -1
-1;
#X obj 793 233 bng 8 250 50 0 empty empty empty 17 7 0 10 -262144 -1
-1;
#X obj 516 249 comment 250 12 Helvetica ? 0 0 0 0 Links;
#X obj 49 30 comment 400 24 Helvetica Mouse 0 0 0 0 Particle System
;
#X obj 321 33 gemwin_control;
#X obj 513 69 comment 320 12 Helvetica ? 0 0 0 0 particle systems have
amounts of particles to draw per frame \, and an age \, determined
in also in frames? to be killed at. I don't know what the velocity
shpere is. all pd objects need a gemhead at their start \, articles
systems also need a particle head.;
#X obj 516 272 pddplink part_head-help.pd;
#X obj 516 293 pddplink part_velocity-help.pd;
#X obj 516 313 pddplink part_source-help.pd;
#X obj 516 334 pddplink part_killiod-help.pd;
#X obj 515 356 pddplink part_draw-help.pd;
#X obj 52 80 gemhead;
#X connect 0 0 9 0;
#X connect 7 0 9 2;
#X connect 8 0 9 2;
#X connect 9 0 10 0;
#X connect 10 0 11 0;
#X connect 11 0 1 0;
#X connect 13 0 14 0;
#X connect 14 0 16 0;
#X connect 14 0 15 0;
#X connect 26 0 0 0;
