#N canvas 544 22 669 724 10;
#X obj 46 378 gemwin;
#X msg 46 220 create;
#X msg 63 249 destroy;
#X obj 198 39 gemhead;
#X obj 198 136 part_color;
#X obj 198 615 part_draw;
#X text 391 35 set the color range;
#X text 309 174 set the size;
#X text 267 281 set the number per frame;
#X text 330 458 set the age to kill at;
#X text 396 195 the velocity domain;
#X text 394 229 radius = 0.2;
#X floatatom 361 388 0 0 0 0 - - -;
#X text 366 417 orbit point and gravity;
#X obj 422 59 loadbang;
#X text 380 386 keep the gravity low;
#X obj 198 461 part_killold 35;
#X msg 398 95 0 0 1;
#X obj 198 174 part_size 0.8;
#X text 393 213 a sphere at -1 0 0;
#X text 332 302 apply a gravity to the right;
#X msg 289 380 0 1 0;
#X obj 198 305 part_gravity 0.07 0 0;
#X obj 198 579 translateXYZ -1 0.5 0;
#X obj 198 544 rotateXYZ 0 1 0;
#X floatatom 365 648 0 0 0 0 - - -;
#X obj 198 414 part_orbitpoint 0 -1 0 0.88;
#X obj 198 497 part_gravity 0 0 -0.05;
#X obj 198 220 part_velocity sphere -1 0 0 0.05;
#X msg 458 96 1 0 0;
#X text 390 498 apply a gravity in Z;
#X obj 198 82 part_head 2000;
#X text 204 60 maximum of 2000 particles;
#X obj 198 276 part_source 10;
#N canvas 91 174 290 179 Gem.init 0;
#X obj 118 46 loadbang;
#X msg 118 81 reset;
#X obj 118 113 outlet;
#X connect 0 0 1 0;
#X connect 1 0 2 0;
#X restore 95 356 pd Gem.init;
#X obj 365 609 i;
#X obj 396 609 + 1;
#X obj 426 609 % 360;
#X obj 523 59 comment 250 12 Helvetica ? 0 0 0 0 Overview;
#X obj 509 43 bng 8 250 50 0 empty empty empty 17 7 0 10 -262144 -1
-1;
#X obj 508 235 bng 8 250 50 0 empty empty empty 17 7 0 10 -262144 -1
-1;
#X obj 507 457 bng 8 250 50 0 empty empty empty 17 7 0 10 -262144 -1
-1;
#X obj 803 243 bng 8 250 50 0 empty empty empty 17 7 0 10 -262144 -1
-1;
#X obj 526 259 comment 250 12 Helvetica ? 0 0 0 0 Links;
#X obj 59 56 comment 400 24 Helvetica Mouse 0 0 0 0 Particle System
;
#X obj 365 589 metro 33;
#X obj 365 574 tgl 15 0 empty empty empty 17 7 0 10 -262144 -1 -1 1
1;
#X obj 365 555 loadbang;
#X connect 1 0 0 0;
#X connect 2 0 0 0;
#X connect 3 0 31 0;
#X connect 4 0 18 0;
#X connect 12 0 26 2;
#X connect 14 0 29 0;
#X connect 14 0 17 0;
#X connect 16 0 27 0;
#X connect 17 0 4 1;
#X connect 18 0 28 0;
#X connect 21 0 26 1;
#X connect 22 0 26 0;
#X connect 23 0 5 0;
#X connect 24 0 23 0;
#X connect 25 0 24 2;
#X connect 26 0 16 0;
#X connect 27 0 24 0;
#X connect 28 0 33 0;
#X connect 29 0 4 2;
#X connect 31 0 4 0;
#X connect 33 0 22 0;
#X connect 34 0 0 0;
#X connect 35 0 36 0;
#X connect 35 0 25 0;
#X connect 36 0 37 0;
#X connect 37 0 35 1;
#X connect 39 0 40 0;
#X connect 40 0 42 0;
#X connect 40 0 41 0;
#X connect 45 0 35 0;
#X connect 46 0 45 0;
#X connect 47 0 46 0;
