#N canvas 488 22 669 724 10;
#X obj 57 103 gemhead;
#X obj 57 200 part_color;
#X obj 57 459 part_draw;
#X text 250 99 set the color range;
#X text 168 224 set the size;
#X text 126 296 set the number per frame;
#X text 162 432 set the age to kill at;
#X text 255 238 the velocity domain;
#X text 253 272 radius = 0.2;
#X floatatom 220 375 0 0 0 0 - - -;
#X text 225 404 orbit point and gravity;
#X obj 281 123 loadbang;
#X text 239 373 keep the gravity low;
#X obj 57 433 part_killold 35;
#X msg 257 159 0 0 1;
#X text 252 256 a sphere at -1 0 0;
#X msg 148 367 0 1 0;
#X obj 57 401 part_orbitpoint 0 -1 0 0.88;
#X obj 57 263 part_velocity sphere -1 0 0 0.05;
#X obj 57 146 part_head 2000;
#X text 63 124 maximum of 2000 particles;
#X obj 57 291 part_source 10;
#X obj 523 59 comment 250 12 Helvetica ? 0 0 0 0 Overview;
#X obj 509 43 bng 8 250 50 0 empty empty empty 17 7 0 10 -262144 -1
-1;
#X obj 508 235 bng 8 250 50 0 empty empty empty 17 7 0 10 -262144 -1
-1;
#X obj 507 457 bng 8 250 50 0 empty empty empty 17 7 0 10 -262144 -1
-1;
#X obj 803 243 bng 8 250 50 0 empty empty empty 17 7 0 10 -262144 -1
-1;
#X obj 526 259 comment 250 12 Helvetica ? 0 0 0 0 Links;
#X obj 59 50 comment 400 24 Helvetica Mouse 0 0 0 0 Particle System
;
#X obj 365 44 gemwin_control;
#X msg 317 160 1 0 1;
#X obj 57 224 part_size 6.8;
#X text 191 317 apply some gravity to the right;
#X obj 57 320 part_gravity 0 0 0;
#X obj 232 477 hsl 128 15 0 2 0 0 empty empty empty -2 -8 0 10 -262144
-1 -1 0 1;
#X obj 229 608 pack f f f;
#X obj 257 518 hsl 128 15 0 2 0 0 empty empty empty -2 -8 0 10 -262144
-1 -1 800 1;
#X obj 267 563 hsl 128 15 0 2 0 0 empty empty empty -2 -8 0 10 -262144
-1 -1 500 1;
#X msg 229 629 set \$1 \$2 \$3;
#X msg 229 682 0 0.125984 0.0787402;
#X obj 229 496 t b f;
#X obj 254 538 t b f;
#X obj 264 583 t b f;
#X obj 243 656 bng 15 250 50 0 empty empty empty 17 7 0 10 -262144
-1 -1;
#X connect 0 0 19 0;
#X connect 1 0 31 0;
#X connect 9 0 17 2;
#X connect 11 0 30 0;
#X connect 11 0 14 0;
#X connect 13 0 2 0;
#X connect 14 0 1 1;
#X connect 16 0 17 1;
#X connect 17 0 13 0;
#X connect 18 0 21 0;
#X connect 19 0 1 0;
#X connect 21 0 33 0;
#X connect 23 0 24 0;
#X connect 24 0 26 0;
#X connect 24 0 25 0;
#X connect 30 0 1 2;
#X connect 31 0 18 0;
#X connect 33 0 17 0;
#X connect 34 0 40 0;
#X connect 35 0 38 0;
#X connect 36 0 41 0;
#X connect 37 0 42 0;
#X connect 38 0 39 0;
#X connect 38 0 43 0;
#X connect 39 0 33 1;
#X connect 40 0 35 0;
#X connect 40 1 35 0;
#X connect 41 0 35 0;
#X connect 41 1 35 1;
#X connect 42 0 35 0;
#X connect 42 1 35 2;
#X connect 43 0 39 0;
