#N canvas 495 22 850 584 10;
#X obj 71 100 gemhead;
#X obj 71 128 part_head;
#X text 197 309 set the number per frame;
#X text 200 330 set the age to kill at;
#X text 223 130 the velocity domain;
#X text 227 140 a sphere at 0 \, 0.2 \, 0;
#X text 227 155 radius = 0.3;
#X msg 260 224 0 0.2 0 0.3;
#X msg 347 223 0.2 0 0 0.3;
#X obj 71 278 part_velocity sphere 0 0.2 0 0.3;
#X obj 75 362 part_render;
#X obj 71 175 part_size 1;
#X msg 161 152 2;
#X obj 71 251 part_color;
#X msg 99 210 1 0 0;
#X obj 71 308 part_source 5;
#X obj 71 339 part_killold 10;
#X msg 128 232 0 1 0;
#X obj 533 69 comment 250 12 Helvetica ? 0 0 0 0 Overview;
#X obj 519 53 bng 8 250 50 0 empty empty empty 17 7 0 10 -262144 -1
-1;
#X obj 518 245 bng 8 250 50 0 empty empty empty 17 7 0 10 -262144 -1
-1;
#X obj 517 467 bng 8 250 50 0 empty empty empty 17 7 0 10 -262144 -1
-1;
#X obj 813 253 bng 8 250 50 0 empty empty empty 17 7 0 10 -262144 -1
-1;
#X obj 536 269 comment 250 12 Helvetica ? 0 0 0 0 Links;
#X obj 69 56 comment 400 24 Helvetica Mouse 0 0 0 0 Particle System
;
#X obj 161 133 loadbang;
#X obj 161 172 bng 15 250 50 0 empty empty empty 17 7 0 10 -262144
-1 -1;
#X obj 161 211 bng 15 250 50 0 empty empty empty 17 7 0 10 -262144
-1 -1;
#X obj 366 54 gemwin_control;
#X obj 161 191 delay 100;
#X obj 535 95 comment 320 12 Helvetica ? 0 0 0 0 this particle system
has a [part_render] object as part of it \, that means you can wrap
textures to it.;
#X obj 73 475 pix_image;
#X obj 115 382 bng 15 250 50 0 empty empty empty 0 -6 0 8 -262144 -1
-1;
#N canvas 0 22 450 300 openpanel 0;
#X obj 114 62 inlet;
#X obj 121 254 outlet;
#X obj 114 125 openpanel;
#X msg 114 162 set open \$1;
#X obj 114 199 t b a;
#X connect 0 0 2 0;
#X connect 2 0 3 0;
#X connect 3 0 4 0;
#X connect 4 0 1 0;
#X connect 4 1 1 0;
#X restore 115 403 pd openpanel;
#X msg 115 431 open /Users/sofyyuditskaya/Desktop/f737dd6004d05bd1d2e43ab212e1f92c2a3c4ae5_m.jpg
;
#X obj 73 503 pix_texture;
#X obj 70 527 sphere 0.2;
#X text 196 379 open an image and map it to your particle system;
#X connect 0 0 1 0;
#X connect 1 0 11 0;
#X connect 7 0 9 2;
#X connect 8 0 9 2;
#X connect 9 0 15 0;
#X connect 10 0 31 0;
#X connect 11 0 13 0;
#X connect 12 0 11 1;
#X connect 13 0 9 0;
#X connect 14 0 13 1;
#X connect 15 0 16 0;
#X connect 16 0 10 0;
#X connect 17 0 13 2;
#X connect 19 0 20 0;
#X connect 20 0 22 0;
#X connect 20 0 21 0;
#X connect 25 0 12 0;
#X connect 25 0 26 0;
#X connect 26 0 29 0;
#X connect 27 0 14 0;
#X connect 27 0 17 0;
#X connect 29 0 27 0;
#X connect 31 0 35 0;
#X connect 32 0 33 0;
#X connect 33 0 34 0;
#X connect 34 0 31 0;
#X connect 35 0 36 0;
