#N canvas 274 97 764 557 10;
#N canvas 412 247 681 394 tables 0;
#N canvas 0 22 450 300 (subpatch) 0;
#X array red 256 float 0;
#X coords 0 1 255 0 256 140 1;
#X restore 95 30 graph;
#N canvas 0 22 450 300 (subpatch) 0;
#X array green 256 float 0;
#X coords 0 1 255 0 256 140 1;
#X restore 399 29 graph;
#N canvas 0 22 450 300 (subpatch) 0;
#X array blue 256 float 0;
#X coords 0 1 255 0 256 140 1;
#X restore 98 214 graph;
#N canvas 0 22 450 300 (subpatch) 0;
#X array alpha 64 float 0;
#X coords 0 1 63 0 256 140 1;
#X restore 396 212 graph;
#X restore 303 264 pd tables;
#X obj 35 238 gemhead;
#X obj 34 476 pix_texture;
#N canvas 0 22 450 300 (subpatch) 0;
#X array rgb 64 float 0;
#X coords 0 1 63 0 256 140 1;
#X restore 35 84 graph;
#X text 156 58 pix_curve: adjust the colour of an image;
#X text 375 266 separate tables for r \, g \, b and a;
#X msg 186 238 1;
#X msg 156 238 0;
#X msg 215 238 2;
#X obj 34 497 square 3;
#X msg 95 289 set red green blue alpha;
#X msg 99 325 set red green blue;
#X msg 99 365 set rgb;
#X obj 34 395 pix_histo rgb;
#X msg 303 147 \; rgb resize 32;
#X msg 304 183 \; rgb resize 64;
#X msg 303 225 \; rgb normalize 1;
#X obj 300 367 pix_histo rgb;
#X obj 303 328 pix_histo red green blue;
#X obj 302 288 pix_histo red green blue alpha;
#X text 246 399 one histogramm for all channels (making grey out of
rgb);
#X text 326 346 histograms for r \, g \, b;
#X text 337 306 histograms for r \, g \, b \, a;
#X obj 36 531 cnv 15 220 70 empty empty empty 20 12 0 14 -195568 -66577
0;
#N canvas 0 22 454 304 gemwin 0;
#X obj 132 136 gemwin;
#X obj 67 89 outlet;
#X obj 67 10 inlet;
#X obj 67 41 route create;
#X msg 67 70 set destroy;
#X msg 182 68 set create;
#X msg 132 112 create \, 1;
#X msg 238 112 destroy;
#N canvas 87 154 247 179 Gem.init 0;
#X obj 118 46 loadbang;
#X msg 118 81 reset;
#X obj 118 113 outlet;
#X connect 0 0 1 0;
#X connect 1 0 2 0;
#X restore 289 80 pd Gem.init;
#X connect 2 0 3 0;
#X connect 3 0 4 0;
#X connect 3 0 6 0;
#X connect 3 1 5 0;
#X connect 3 1 7 0;
#X connect 4 0 1 0;
#X connect 5 0 1 0;
#X connect 6 0 0 0;
#X connect 7 0 0 0;
#X connect 8 0 0 0;
#X restore 41 575 pd gemwin;
#X msg 41 551 create;
#X text 37 531 Create window and render;
#X obj 35 263 pix_multiimage ../data/temp*.JPG 2;
#X obj 32 19 comment 171 24 Helvetica Mouse 0 0 0 0 RGB Histogram;
#X obj 592 72 cnv 15 1 400 empty empty empty 20 12 0 14 -233017 -66577
0;
#X obj 593 245 cnv 15 350 1 empty empty empty 20 12 0 14 -233017 -66577
0;
#X connect 1 0 27 0;
#X connect 2 0 9 0;
#X connect 6 0 27 1;
#X connect 7 0 27 1;
#X connect 8 0 27 1;
#X connect 10 0 13 0;
#X connect 11 0 13 0;
#X connect 12 0 13 0;
#X connect 13 0 2 0;
#X connect 24 0 25 0;
#X connect 25 0 24 0;
#X connect 27 0 13 0;
